<svg width="24" height="24" viewBox="0 0 24 24" fill="none" xmlns="http://www.w3.org/2000/svg">
<path d="M4 20H11.8027C12.01 20.3584 12.2534 20.6934 12.5278 21H4C3.44772 21 3 20.5523 3 20V17.0711C3 17.0237 3.00336 16.9765 3.01005 16.9296L4.87735 3.85858C4.94772 3.36593 5.36965 3 5.8673 3H18.1327C18.6304 3 19.0523 3.36593 19.1227 3.85858L20.2824 11.9766C19.9414 11.7534 19.5763 11.5639 19.1918 11.4129L18.133 4H5.867L4.15299 15.9999H11.083C11.0284 16.3251 11 16.6592 11 16.9999H4.01016L4 17.071V20Z" fill="#838691"/>
<path d="M6.49997 18H5.49997V19H6.49997V18Z" fill="#838691"/>
<path d="M9.49997 18H8.49997V19H9.49997V18Z" fill="#838691"/>
<path fill-rule="evenodd" clip-rule="evenodd" d="M22 17C22 19.7614 19.7614 22 17 22C14.2386 22 12 19.7614 12 17C12 14.2386 14.2386 12 17 12C19.7614 12 22 14.2386 22 17ZM17.443 18.4614C17.426 18.7097 17.2188 18.9 16.9719 18.9C16.6994 18.9 16.4808 18.6688 16.4988 18.3977C16.5064 18.2778 16.5177 18.1675 16.5329 18.0676C16.5669 17.8393 16.6209 17.6395 16.6947 17.4683C16.7685 17.2961 16.8593 17.1448 16.9671 17.0145C17.075 16.8842 17.2027 16.7548 17.3513 16.6283C17.4705 16.5236 17.5831 16.4266 17.6909 16.3372C17.7988 16.2478 17.8953 16.1488 17.9804 16.0404C18.0656 15.9319 18.1328 15.8102 18.181 15.676C18.2293 15.5419 18.2539 15.3811 18.2539 15.1947C18.2539 14.9711 18.2141 14.7789 18.1366 14.6182C18.059 14.4574 17.9644 14.329 17.8527 14.2319C17.7411 14.1349 17.6219 14.0636 17.496 14.0188C17.3702 13.9741 17.2586 13.9513 17.162 13.9513C16.7013 13.9513 16.3616 14.1026 16.1431 14.4051C15.986 14.622 15.8857 14.8902 15.8413 15.2118C15.8091 15.4458 15.6095 15.6199 15.3739 15.6199C15.0881 15.6199 14.8649 15.3659 14.9046 15.0815C14.9708 14.603 15.1298 14.1891 15.3786 13.8448C15.6577 13.4595 16.1932 13 17.162 13C17.3683 13 17.5812 13.04 17.8111 13.1218C18.0495 13.2064 18.2719 13.3377 18.4724 13.5128C18.6806 13.6935 18.8537 13.9256 18.9871 14.2005C19.1281 14.4916 19.2 14.8256 19.2 15.1947C19.2 15.4915 19.1565 15.7616 19.0713 15.9995C18.9881 16.2297 18.8707 16.4428 18.7222 16.6311C18.5964 16.791 18.4526 16.9384 18.2946 17.0697C18.1933 17.1534 18.0864 17.2457 17.9748 17.3437L17.9644 17.3522C17.8584 17.4426 17.7676 17.533 17.6957 17.6205C17.6455 17.6814 17.601 17.7575 17.5623 17.846C17.5216 17.9401 17.4904 18.0609 17.4695 18.2046C17.4582 18.2807 17.4497 18.3663 17.443 18.4614ZM16.4 20.4C16.4 20.7312 16.6688 21 17 21C17.3312 21 17.6 20.7312 17.6 20.4C17.6 20.0688 17.3312 19.8 17 19.8C16.6688 19.8 16.4 20.0688 16.4 20.4Z" fill="#838691"/>
</svg>
