<svg enable-background="new 0 0 11 11" viewBox="0 0 11 11" xmlns="http://www.w3.org/2000/svg"><path d="m5.5 1.1c-2.4 0-4.4 2-4.4 4.4 0 1.3.6 2.5 1.5 3.3l-.5 1.1c-1.3-1-2.1-2.6-2.1-4.4 0-3 2.5-5.5 5.5-5.5s5.5 2.5 5.5 5.5c0 1.8-.8 3.4-2.2 4.4l-.4-1.1c.9-.8 1.5-2 1.5-3.3 0-2.4-2-4.4-4.4-4.4m0 2.2c-1.2 0-2.2 1-2.2 2.2 0 .3.1.6.2.8l-.5 1.3c-.5-.6-.8-1.3-.8-2.1 0-1.8 1.5-3.3 3.3-3.3s3.3 1.5 3.3 3.3c0 .8-.3 1.5-.8 2.1l-.5-1.3c.1-.3.2-.5.2-.8 0-1.2-1-2.2-2.2-2.2m0 1.1c.6 0 1.1.5 1.1 1.1 0 .3-.1.5-.3.7l1.8 4.8h-1.2l-1.4-3.9-1.4 3.9h-1.2l1.7-4.8c-.1-.2-.2-.4-.2-.7 0-.6.5-1.1 1.1-1.1" fill="#fff"/></svg>