<svg viewBox="0 0 11 10" xmlns="http://www.w3.org/2000/svg"><path d="m17.95 18.8v2.1h-.55a.538.538 0 0 0 -.55.524h-3.85v1.049h3.85a.538.538 0 0 0 .55.527h2.2a.537.537 0 0 0 .55-.524h3.85v-1.049h-3.85a.537.537 0 0 0 -.55-.524h-.55v-2.103zm.55-3.146a1.05 1.05 0 1 0 1.1 1.049 1.076 1.076 0 0 0 -1.1-1.044zm2.332-1.175-.776.739a2.033 2.033 0 0 1 0 2.968l.776.739a3.037 3.037 0 0 0 0-4.447zm-4.664 0a3.037 3.037 0 0 0 0 4.447l.776-.739a2.033 2.033 0 0 1 0-2.968zm6.221-1.479-.775.739a4.066 4.066 0 0 1 0 5.936l.775.739a5.07 5.07 0 0 0 0-7.415zm-7.777 0a5.07 5.07 0 0 0 0 7.415l.776-.739a4.066 4.066 0 0 1 0-5.936z" fill="#fff" transform="translate(-13 -13)"/></svg>