<svg viewBox="0 0 512 151.66" xmlns="http://www.w3.org/2000/svg"><path d="m20.72 0h470.55a20.73 20.73 0 0 1 20.73 20.73v110.2a20.73 20.73 0 0 1 -20.73 20.73h-470.55a20.72 20.72 0 0 1 -20.72-20.73v-110.21a20.72 20.72 0 0 1 20.72-20.72z"/><g fill="#fff"><path d="m112.43 74.86c-.11-12.36 10.15-18.37 10.62-18.65a22.86 22.86 0 0 0 -18-9.69c-7.54-.8-14.88 4.48-18.73 4.48s-9.86-4.44-16.26-4.31a24 24 0 0 0 -20.15 12.31c-8.71 15-2.21 37.14 6.13 49.3 4.18 6 9.06 12.6 15.44 12.37s8.58-4 16.12-4 9.66 4 16.18 3.82c6.71-.11 10.93-6 15-12a49.13 49.13 0 0 0 6.84-13.89c-.19-.03-13.06-4.93-13.19-19.74z"/><path d="m100.13 38.52c3.36-4.19 5.66-9.89 5-15.68-4.86.21-10.95 3.35-14.45 7.45-3.1 3.61-5.87 9.53-5.15 15.1 5.47.41 11.09-2.75 14.6-6.87z"/><path d="m202.87 119.79h-8.73l-4.79-15h-16.62l-4.56 15h-8.5l16.47-51h10.18zm-15-21.28-4.33-13.32q-.69-2-2.58-9.61h-.15q-.76 3.25-2.43 9.61l-4.25 13.32z"/><path d="m245.24 100.94q0 9.39-5.09 14.83a14.9 14.9 0 0 1 -11.31 4.84q-7.29 0-10.48-5.22h-.15v19.38h-8.21v-39.66q0-5.9-.3-12.11h7.21l.46 5.83h.15q4.1-6.59 12.45-6.59a13.7 13.7 0 0 1 10.89 5.14q4.38 5.16 4.38 13.56zm-8.35.3a15.11 15.11 0 0 0 -2.43-8.86 8.4 8.4 0 0 0 -7.14-3.63 8.54 8.54 0 0 0 -5.5 2 9.3 9.3 0 0 0 -3.23 5.25 10.67 10.67 0 0 0 -.38 2.49v6.13a9.81 9.81 0 0 0 2.47 6.78 8.19 8.19 0 0 0 6.41 2.76 8.4 8.4 0 0 0 7.21-3.56q2.58-3.53 2.58-9.36z"/><path d="m287.68 100.94q0 9.39-5.09 14.83a14.88 14.88 0 0 1 -11.31 4.84q-7.29 0-10.48-5.22h-.15v19.38h-8.2v-39.66q0-5.9-.3-12.11h7.21l.46 5.83h.18q4.1-6.59 12.45-6.59a13.73 13.73 0 0 1 10.9 5.14q4.32 5.16 4.33 13.56zm-8.35.3a15.11 15.11 0 0 0 -2.43-8.86 8.39 8.39 0 0 0 -7.13-3.63 8.55 8.55 0 0 0 -5.51 2 9.29 9.29 0 0 0 -3.26 5.25 10.88 10.88 0 0 0 -.38 2.49v6.13a9.84 9.84 0 0 0 2.46 6.78 8.21 8.21 0 0 0 6.42 2.76 8.4 8.4 0 0 0 7.21-3.56q2.62-3.53 2.62-9.36z"/><path d="m335.13 105.48a13.58 13.58 0 0 1 -4.55 10.6q-5 4.47-13.94 4.47-8.26 0-13.26-3.18l1.9-6.81a22.53 22.53 0 0 0 11.85 3.26q4.63 0 7.22-2.09a6.8 6.8 0 0 0 2.57-5.57 7.1 7.1 0 0 0 -2.13-5.23 19.74 19.74 0 0 0 -7.05-3.93q-13.44-5-13.43-14.63a12.93 12.93 0 0 1 4.69-10.37q4.69-4 12.53-4a24.9 24.9 0 0 1 11.61 2.42l-2 6.67a20.19 20.19 0 0 0 -9.79-2.35 9.93 9.93 0 0 0 -6.75 2.11 6 6 0 0 0 -2 4.62 6.23 6.23 0 0 0 2.35 5q2 1.82 7.45 3.94 6.61 2.65 9.72 6.2a12.94 12.94 0 0 1 3.01 8.87z"/><path d="m362.24 89.14h-9v17.86q0 6.81 4.78 6.81a14.62 14.62 0 0 0 3.64-.38l.23 6.21a18.63 18.63 0 0 1 -6.38.9 9.85 9.85 0 0 1 -7.59-3q-2.73-3-2.73-9.92v-18.49h-5.38v-6.13h5.39v-6.74l8.05-2.42v9.16h9v6.14z"/><path d="m403 101.09q0 8.48-4.86 13.93-5.1 5.6-13.52 5.6-8.12 0-12.94-5.37a19.54 19.54 0 0 1 -4.82-13.55q0-8.55 5-14t13.4-5.45q8.12 0 13.06 5.38 4.68 5.21 4.68 13.46zm-8.51.26a16.51 16.51 0 0 0 -2.2-8.73 8.1 8.1 0 0 0 -7.36-4.4 8.23 8.23 0 0 0 -7.52 4.4 16.83 16.83 0 0 0 -2.2 8.88 16.49 16.49 0 0 0 2.2 8.73 8.27 8.27 0 0 0 7.45 4.4q4.7 0 7.36-4.48a16.57 16.57 0 0 0 2.29-8.79z"/><path d="m429.66 90.19a14.28 14.28 0 0 0 -2.58-.23 7.75 7.75 0 0 0 -6.68 3.26 12.22 12.22 0 0 0 -2 7.27v19.3h-8.19l.08-25.2q0-6.36-.31-11.58h7.14l.3 7h.23a12.58 12.58 0 0 1 4.1-5.83 9.93 9.93 0 0 1 5.93-2 13.2 13.2 0 0 1 2 .15z"/><path d="m466.33 99.66a19.11 19.11 0 0 1 -.3 3.71h-24.6q.14 5.45 3.57 8.33a12.21 12.21 0 0 0 8 2.57 27.28 27.28 0 0 0 10-1.74l1.28 5.67a30.85 30.85 0 0 1 -12.37 2.28q-8.58 0-13.48-5t-4.9-13.51q0-8.32 4.56-13.85a15.73 15.73 0 0 1 12.9-5.9q8 0 12.08 5.9a19.86 19.86 0 0 1 3.26 11.54zm-7.82-2.12a11.08 11.08 0 0 0 -1.59-6.29 7.17 7.17 0 0 0 -6.53-3.41 7.79 7.79 0 0 0 -6.53 3.33 12.18 12.18 0 0 0 -2.43 6.36h17.08z"/><path d="m185.2 37.38q0 6.77-4.07 10.19-3.77 3.16-10.7 3.16a49.77 49.77 0 0 1 -5.9-.3v-24.66a43.63 43.63 0 0 1 6.94-.52q6.61 0 10 2.86 3.73 3.24 3.73 9.27zm-4.25.11q0-4.39-2.33-6.73t-6.81-2.34a17.1 17.1 0 0 0 -3.25.26v18.74a21.34 21.34 0 0 0 2.72.11q4.63 0 7.14-2.57t2.58-7.47z"/><path d="m207.73 41.32a9.9 9.9 0 0 1 -2.39 6.84 8.54 8.54 0 0 1 -6.64 2.75 8.11 8.11 0 0 1 -6.36-2.64 9.6 9.6 0 0 1 -2.34-6.65 9.8 9.8 0 0 1 2.44-6.88 8.48 8.48 0 0 1 6.56-2.67 8.3 8.3 0 0 1 6.41 2.64 9.53 9.53 0 0 1 2.32 6.61zm-4.18.13a8.16 8.16 0 0 0 -1.08-4.29 4 4 0 0 0 -3.61-2.16 4 4 0 0 0 -3.7 2.16 8.26 8.26 0 0 0 -1.08 4.36 8.16 8.16 0 0 0 1.08 4.29 4.07 4.07 0 0 0 3.66 2.19 4 4 0 0 0 3.61-2.2 8.1 8.1 0 0 0 1.12-4.35z"/><path d="m237.94 32.43-5.67 18.07h-3.69l-2.35-7.85a58.6 58.6 0 0 1 -1.46-5.84h-.08a42.65 42.65 0 0 1 -1.46 5.84l-2.5 7.85h-3.73l-5.33-18.07h4.14l2 8.59q.74 3 1.23 5.8h.07q.45-2.27 1.5-5.76l2.57-8.63h3.28l2.54 8.45q.89 3.09 1.45 6h.11a56.71 56.71 0 0 1 1.23-6l2.2-8.44h4z"/><path d="m258.83 50.51h-4v-10.35q0-4.78-3.65-4.78a3.64 3.64 0 0 0 -2.91 1.32 4.66 4.66 0 0 0 -1.12 3.1v10.7h-4v-12.9q0-2.38-.15-5.17h3.54l.19 2.83h.11a5.81 5.81 0 0 1 2.09-2.18 6.83 6.83 0 0 1 3.65-1 5.79 5.79 0 0 1 4.22 1.64q2.09 2 2.09 6z"/><path d="m269.95 50.51h-4v-26.37h4z"/><path d="m293.68 41.32a9.9 9.9 0 0 1 -2.39 6.84 8.54 8.54 0 0 1 -6.64 2.75 8.1 8.1 0 0 1 -6.36-2.64 9.6 9.6 0 0 1 -2.37-6.66 9.8 9.8 0 0 1 2.44-6.88 8.48 8.48 0 0 1 6.58-2.68 8.31 8.31 0 0 1 6.42 2.64 9.53 9.53 0 0 1 2.32 6.63zm-4.18.13a8.16 8.16 0 0 0 -1.08-4.29 4 4 0 0 0 -3.62-2.16 4 4 0 0 0 -3.7 2.16 8.26 8.26 0 0 0 -1.1 4.37 8.15 8.15 0 0 0 1.08 4.29 4.07 4.07 0 0 0 3.68 2.18 4 4 0 0 0 3.61-2.2 8.07 8.07 0 0 0 1.12-4.35z"/><path d="m313.18 50.51h-3.62l-.3-2.08h-.11a6.21 6.21 0 0 1 -5.3 2.49 5.47 5.47 0 0 1 -4.14-1.63 5.12 5.12 0 0 1 -1.42-3.68 5.61 5.61 0 0 1 2.78-5.06q2.78-1.75 7.82-1.71v-.34q0-3.57-3.76-3.57a8.45 8.45 0 0 0 -4.73 1.33l-.82-2.64a11.65 11.65 0 0 1 6.22-1.56q7.11 0 7.11 7.48v6.66a28.15 28.15 0 0 0 .27 4.31zm-4.18-6.21v-2.79q-6.67-.12-6.67 3.64a2.72 2.72 0 0 0 .77 2.12 2.82 2.82 0 0 0 2 .71 4.08 4.08 0 0 0 2.47-.84 3.43 3.43 0 0 0 1.43-2.84z"/><path d="m336.08 50.51h-3.57l-.19-2.9h-.11a6 6 0 0 1 -5.82 3.31 6.83 6.83 0 0 1 -5.44-2.57 10 10 0 0 1 -2.16-6.66 10.46 10.46 0 0 1 2.35-7.1 7.23 7.23 0 0 1 5.6-2.53q3.65 0 5.11 2.45h.08v-10.37h4v21.5q.01 2.64.15 4.87zm-4.18-7.62v-3a5.9 5.9 0 0 0 -.11-1.26 4.57 4.57 0 0 0 -1.46-2.43 4 4 0 0 0 -2.7-1 4.14 4.14 0 0 0 -3.54 1.8 7.64 7.64 0 0 0 -1.29 4.57 7.12 7.12 0 0 0 1.2 4.33 4.15 4.15 0 0 0 3.52 1.78 3.89 3.89 0 0 0 3.18-1.49 4.94 4.94 0 0 0 1.15-3.31z"/><path d="m370.55 41.32a9.9 9.9 0 0 1 -2.39 6.84 8.53 8.53 0 0 1 -6.64 2.75 8.12 8.12 0 0 1 -6.36-2.64 9.6 9.6 0 0 1 -2.37-6.66 9.8 9.8 0 0 1 2.44-6.88 8.48 8.48 0 0 1 6.59-2.68 8.29 8.29 0 0 1 6.41 2.64 9.53 9.53 0 0 1 2.32 6.63zm-4.18.13a8.16 8.16 0 0 0 -1.08-4.29 4 4 0 0 0 -3.62-2.16 4.05 4.05 0 0 0 -3.7 2.16 8.26 8.26 0 0 0 -1.08 4.36 8.16 8.16 0 0 0 1.11 4.29 4.07 4.07 0 0 0 3.63 2.19 4 4 0 0 0 3.62-2.2 8.14 8.14 0 0 0 1.12-4.35z"/><path d="m392.22 50.51h-4v-10.35q0-4.78-3.66-4.78a3.63 3.63 0 0 0 -2.91 1.32 4.64 4.64 0 0 0 -1.12 3.1v10.7h-4v-12.9q0-2.38-.14-5.17h3.54l.19 2.83h.11a5.87 5.87 0 0 1 2.09-2.18 6.84 6.84 0 0 1 3.66-1 5.79 5.79 0 0 1 4.22 1.64q2.1 2 2.09 6z"/><path d="m419.34 35.44h-4.44v8.78c0 2.23.79 3.35 2.35 3.35a7.12 7.12 0 0 0 1.8-.19l.1 3a9.08 9.08 0 0 1 -3.13.45 4.83 4.83 0 0 1 -3.73-1.45q-1.34-1.38-1.29-4.82v-9.12h-2.7v-3h2.7v-3.32l3.95-1.19v4.5h4.44z"/><path d="m440.67 50.51h-4v-10.28q0-4.86-3.65-4.86a3.85 3.85 0 0 0 -3.85 2.82 5 5 0 0 0 -.19 1.45v10.86h-4v-26.36h4v10.86h.02a6.1 6.1 0 0 1 5.44-3 5.63 5.63 0 0 1 4.15 1.64q2 2 2 6.06z"/><path d="m462.68 40.62a9.67 9.67 0 0 1 -.15 1.82h-12.09a5.26 5.26 0 0 0 1.75 4.09 6 6 0 0 0 4 1.26 13.39 13.39 0 0 0 4.89-.86l.63 2.79a15.22 15.22 0 0 1 -6.08 1.12 8.8 8.8 0 0 1 -6.63-2.47 9.09 9.09 0 0 1 -2.4-6.64 10.32 10.32 0 0 1 2.24-6.81 7.72 7.72 0 0 1 6.34-2.9 6.75 6.75 0 0 1 5.93 2.9 9.63 9.63 0 0 1 1.57 5.7zm-3.84-1a5.4 5.4 0 0 0 -.78-3.09 3.52 3.52 0 0 0 -3.21-1.68 3.83 3.83 0 0 0 -3.21 1.64 6.07 6.07 0 0 0 -1.2 3.12z"/></g></svg>