<svg enable-background="new 0 0 127 100" viewBox="0 0 127 100" xmlns="http://www.w3.org/2000/svg"><path d="m110 0v11h-94v-11h-16v100h127v-100zm0 68h-16v11h-17v11.1h-28v-11.1h-17v-11h-16v-39h10v23h2v-23h10v23h2v-23h10v23h2v-23h10v23h2v-23h10v23h2v-23h10v23h2v-23h10v23h2v-23h10z" fill="#42474d"/><g fill="#fff"><path d="m21.4 58.2-1.5.8-.2-.8 1.8-.9h.9v8h-1z"/><path d="m30.6 65.2v-.7l.8-.8c2-1.9 2.9-2.9 2.9-4.2 0-.8-.4-1.6-1.6-1.6-.8 0-1.3.3-1.7.7l-.3-.8c.6-.5 1.3-.8 2.3-.8 1.7 0 2.4 1.2 2.4 2.3 0 1.5-1.1 2.7-2.8 4.3l-.7.6h3.5v1z"/><path d="m42.9 63.9c.3.2 1 .5 1.8.5 1.3 0 1.8-.9 1.8-1.5 0-1.1-1-1.6-2-1.6h-.6v-.8h.6c.8 0 1.8-.4 1.8-1.3 0-.7-.4-1.2-1.4-1.2-.7 0-1.3.3-1.6.5l-.3-.8c.4-.3 1.3-.6 2.1-.6 1.6 0 2.3.9 2.3 1.9 0 .8-.5 1.5-1.4 1.8 1 .2 1.8.9 1.8 2 0 1.3-1 2.3-2.9 2.3-.9 0-1.7-.3-2.1-.5z"/><path d="m57.9 65.2v-2.2h-3.7v-.7l3.5-5.1h1.2v4.9h1.1v.9h-1.1v2.2zm0-3.1v-2.7c0-.4 0-.8 0-1.3-.3.5-.4.8-.7 1.2l-1.9 2.7z"/><path d="m71.4 58.1h-3l-.3 2c.2 0 .3-.1.7-.1.6 0 1.3.2 1.7.4.6.3 1.2 1 1.2 2 0 1.6-1.3 2.7-2.9 2.7-.8 0-1.6-.3-2-.5l.3-.8c.3.2 1 .4 1.7.4 1 0 1.8-.7 1.8-1.8 0-1-.7-1.8-2.3-1.8-.4 0-.8.1-1.1.1l.5-3.9h3.8v1.3z"/><path d="m83.2 57.9c-.3 0-.5 0-.8.1-1.7.3-2.6 1.5-2.8 2.9.4-.5 1-.9 1.9-.9 1.4 0 2.3 1 2.3 2.6 0 1.4-1 2.8-2.6 2.8-1.7 0-2.8-1.3-2.8-3.4 0-1.6.6-2.8 1.3-3.6.7-.7 1.5-1.1 2.5-1.2.3-.1.6-.1.8-.1zm-.4 4.7c0-1.2-.7-1.8-1.6-1.8-.7 0-1.3.4-1.5 1-.1.1-.1.3-.1.5 0 1.3.6 2.3 1.8 2.3.9-.1 1.4-1 1.4-2z"/><path d="m95.6 57.2v.7l-3.4 7.2h-1.1l3.4-7h-3.9v-.9z"/><path d="m102.5 63.1c0-1 .6-1.7 1.6-2.1-.8-.4-1.3-1.1-1.3-1.8 0-1.3 1.1-2.1 2.4-2.1 1.5 0 2.3 1 2.3 1.9 0 .7-.3 1.4-1.3 1.8 1 .4 1.6 1.1 1.6 2.1 0 1.4-1.2 2.3-2.7 2.3-1.6 0-2.6-.9-2.6-2.1zm4.3-.1c0-1-.7-1.4-1.8-1.8-.9.3-1.4.9-1.4 1.7s.6 1.5 1.6 1.5c1 .1 1.6-.5 1.6-1.4zm-2.9-3.9c0 .8.6 1.3 1.5 1.5.7-.3 1.2-.8 1.2-1.4 0-.7-.4-1.3-1.3-1.3-.9-.1-1.4.5-1.4 1.2z"/><path d="m23.3 23.6c-.4.2-1.1.4-2 .4-2.1 0-3.7-1.4-3.7-3.8s1.6-4 3.9-4c.9 0 1.5.2 1.8.3l-.3.8c-.4-.2-.9-.3-1.5-.3-1.8 0-2.9 1.1-2.9 3.1 0 1.8 1.1 3.1 2.9 3.1.6 0 1.2-.2 1.6-.3z"/><path d="m35.4 23.6c-.4.2-1.1.4-2 .4-2.1 0-3.7-1.4-3.7-3.8s1.6-4 3.9-4c.9 0 1.5.2 1.8.3l-.2.8c-.4-.2-.9-.3-1.5-.3-1.8 0-2.9 1.1-2.9 3.1 0 1.8 1.1 3.1 2.9 3.1.6 0 1.2-.2 1.6-.3z"/><path d="m43.1 16.5c.5-.1 1.1-.2 1.8-.2 1 0 1.6.2 2.1.5.4.3.6.8.6 1.3 0 .7-.5 1.4-1.3 1.7.7.2 1.5.8 1.5 1.9 0 .6-.2 1.1-.6 1.5-.5.5-1.4.7-2.6.7-.7 0-1.1-.1-1.5-.1zm.9 3h.8c1 0 1.6-.5 1.6-1.2 0-.9-.7-1.2-1.6-1.2-.5 0-.7 0-.8.1zm0 3.7c.2 0 .5.1.8.1 1 0 1.9-.4 1.9-1.4s-.8-1.4-1.9-1.4h-.8z"/><path d="m55.4 21.5-.8 2.4h-1l2.5-7.5h1.1l2.5 7.5h-1.1l-.6-2.4zm2.5-.8-.8-2.1c-.2-.5-.3-.9-.4-1.4-.1.5-.2.9-.4 1.4l-.8 2.1z"/><path d="m67.5 21.5-.8 2.4h-1l2.5-7.5h1.1l2.5 7.5h-1.1l-.8-2.4zm2.5-.8-.8-2.1c-.2-.5-.3-.9-.4-1.4-.1.5-.2.9-.4 1.4l-.8 2.1z"/><path d="m79.1 16.5c.5-.1 1.1-.2 1.8-.2 1 0 1.6.2 2.1.5.4.3.6.8.6 1.3 0 .7-.5 1.4-1.3 1.7.7.2 1.5.8 1.5 1.9 0 .6-.2 1.1-.6 1.5-.5.5-1.4.7-2.6.7-.7 0-1.1-.1-1.5-.1zm1 3h.8c1 0 1.6-.5 1.6-1.2 0-.9-.7-1.2-1.6-1.2-.5 0-.7 0-.8.1zm0 3.7c.2 0 .5.1.8.1 1 0 1.9-.4 1.9-1.4s-.8-1.4-1.9-1.4h-.8z"/><path d="m90 16.5c.6-.1 1.3-.2 2.1-.2 1.4 0 2.4.3 3.1.9s1.1 1.4 1.1 2.7-.4 2.2-1.1 2.9-1.8 1.1-3.3 1.1c-.7 0-1.3 0-1.8-.1zm1 6.6c.2.1.6.1 1 .1 2.1 0 3.2-1.1 3.2-3.2 0-1.8-1-2.9-3.1-2.9-.5 0-.8.1-1.1.1z"/><path d="m102.1 16.5c.6-.1 1.3-.2 2.1-.2 1.4 0 2.4.3 3.1.9s1.1 1.4 1.1 2.7-.4 2.2-1.1 2.9-1.8 1.1-3.3 1.1c-.7 0-1.3 0-1.8-.1zm1 6.6c.2.1.6.1 1 .1 2.1 0 3.2-1.1 3.2-3.2 0-1.8-1-2.9-3.1-2.9-.5 0-.8.1-1.1.1z"/></g></svg>