<svg width="34" height="28" viewBox="0 0 34 28" fill="none" xmlns="http://www.w3.org/2000/svg">
<g clip-path="url(#clip0_970_310843)">
<path d="M30.3334 21.7593C28.2345 23.8118 25.3898 24.9628 22.4252 24.9591C19.4607 24.9553 16.619 23.7971 14.5255 21.7393C12.4319 19.6815 11.2579 16.8926 11.2617 13.9862C11.2656 11.0798 12.4469 8.29384 14.5459 6.24133C15.5812 5.22281 16.8115 4.41468 18.1661 3.86327C19.5207 3.31185 20.9729 3.02801 22.4397 3.02801C23.9064 3.02801 25.3587 3.31185 26.7133 3.86327C28.0678 4.41468 29.2981 5.22281 30.3334 6.24133C30.7668 6.67049 31.1643 7.13309 31.5221 7.62467L34 5.828C32.6847 4.02546 30.9499 2.55644 28.9396 1.54286C26.9292 0.529274 24.7013 0.000356894 22.4407 0C15.0878 0 9.0406 5.47467 8.27832 12.5027H2.86756V3.344H9.60568L12.0537 0H0V28L2.86756 25.9333V15.4993H8.27832C9.0406 22.526 15.0878 28 22.4407 28C24.7015 28.0004 26.9297 27.4719 28.9403 26.4584C30.9509 25.4449 32.6857 23.9756 34.0007 22.1727L31.5228 20.3727C31.1649 20.8654 30.7672 21.3291 30.3334 21.7593Z" fill="#5A5C61"/>
<path d="M22.442 8.97264C23.2716 8.97463 24.0882 9.17442 24.8215 9.55479C25.5548 9.93515 26.1828 10.4847 26.6512 11.156L29.1318 9.35598C28.3778 8.30282 27.3763 7.4431 26.2119 6.84945C25.0475 6.25581 23.7544 5.94569 22.442 5.94531C17.9166 5.94531 14.25 9.54998 14.25 13.998C14.25 18.446 17.9166 22.048 22.442 22.0493C23.7544 22.0493 25.0475 21.7395 26.212 21.1459C27.3764 20.5524 28.378 19.6926 29.1318 18.6393L26.6512 16.8393C26.1506 17.5491 25.4717 18.1202 24.6801 18.4974C23.8885 18.8746 23.0111 19.0452 22.1326 18.9927C21.254 18.9401 20.4042 18.6662 19.6653 18.1975C18.9263 17.7287 18.3233 17.081 17.9144 16.3168C17.5056 15.5527 17.3047 14.6981 17.3314 13.8356C17.358 12.9731 17.6112 12.1319 18.0665 11.3934C18.5217 10.655 19.1636 10.0441 19.9301 9.62006C20.6967 9.19598 21.5618 8.97299 22.442 8.97264Z" fill="#5A5C61"/>
</g>
<defs>
<clipPath id="clip0_970_310843">
<rect width="34" height="28" fill="white"/>
</clipPath>
</defs>
</svg>
