<svg width="119" height="28" viewBox="0 0 119 28" fill="none" xmlns="http://www.w3.org/2000/svg">
<g clip-path="url(#clip0_9220_8483)">
<mask id="mask0_9220_8483" style="mask-type:luminance" maskUnits="userSpaceOnUse" x="0" y="0" width="119" height="28">
<path d="M118.222 0H0V28H118.222V0Z" fill="white"/>
</mask>
<g mask="url(#mask0_9220_8483)">
<path d="M4.1684 8.67162C4.1684 8.67162 13.694 0.325938 19.4542 6.57286C25.2145 12.8198 20.6761 22.474 14.9657 28.005H31.8974C34.9452 21.871 35.6194 14.8443 33.7926 8.25186C33.7926 8.25186 29.5285 -3.45184 15.9382 1.0173C11.5797 2.8429 7.59188 5.43634 4.1684 8.67162Z" fill="#5A5C61"/>
<path d="M48.0075 11.9097H44.3668C44.3668 11.9097 37.7837 21.7863 34.3924 28.0086H38.4071C38.4071 28.0086 39.3797 26.3048 40.6014 24.2307H45.5887C45.5887 25.3912 45.5887 26.6999 45.5887 28.0086H49.5037C49.7093 22.6008 49.2064 17.1895 48.0075 11.9097ZM41.8732 22.2308C43.1948 20.0578 44.5413 17.9345 45.1399 17.2925C45.1399 17.2925 45.4141 19.2925 45.5389 22.2308H41.8732Z" fill="#5A5C61"/>
<path d="M80.9914 11.9097H77.3008C77.3008 11.9097 70.6928 21.7863 67.3263 28.0086H71.391C71.391 28.0086 72.3635 26.3048 73.5854 24.2307H78.5725C78.5725 25.3912 78.5725 26.6999 78.5725 28.0086H82.4875C82.6932 22.6008 82.1902 17.1895 80.9914 11.9097ZM74.8073 22.2308C75.8132 20.5324 76.9035 18.8843 78.0738 17.2925C78.0738 17.2925 78.3231 19.2925 78.4728 22.2308H74.8073Z" fill="#5A5C61"/>
<path d="M56.2287 11.9097L51.9896 28.0086H55.4058L58.074 18.1566L62.6372 28.0086H65.3304L69.37 11.9097H65.9538L63.3355 21.9097L58.6724 11.9097H56.2287Z" fill="#5A5C61"/>
<path d="M97.8037 11.8854L85.7344 11.9101L85.3854 13.7867H89.6994L85.8592 28.0089H89.4749L93.3151 13.7867H97.4296L97.8037 11.8854Z" fill="#5A5C61"/>
<path d="M109.024 13.5147L109.448 11.9097H100.322V11.9344L95.9826 28.0086H99.6234H99.6483H105.533L105.957 26.3295H100.072L101.593 20.6752H106.63L107.054 19.0702H102.017L103.513 13.5147H109.024Z" fill="#5A5C61"/>
<path d="M112.359 26.3295L116.199 11.9097H112.559L108.245 28.0086H109.541H111.91H117.795L118.219 26.3295H112.359Z" fill="#5A5C61"/>
<path d="M8.42842 28.0056C13.0833 28.0056 16.8568 24.2692 16.8568 19.6599C16.8568 15.0507 13.0833 11.3142 8.42842 11.3142C3.77353 11.3142 0 15.0507 0 19.6599C0 24.2692 3.77353 28.0056 8.42842 28.0056Z" fill="#5A5C61"/>
</g>
</g>
<defs>
<clipPath id="clip0_9220_8483">
<rect width="118.222" height="28" fill="white"/>
</clipPath>
</defs>
</svg>
