<svg width="33" height="28" viewBox="0 0 33 28" fill="none" xmlns="http://www.w3.org/2000/svg">
<g clip-path="url(#clip0_986_314289)">
<path d="M16.5503 0C14.6779 0 12.8239 0.362376 11.0941 1.06644C9.36423 1.7705 7.79246 2.80246 6.46851 4.1034C3.79466 6.73076 2.2925 10.2942 2.2925 14.0099H0L4.68556 18.8906L9.35101 14.0296H6.95795C6.96359 11.8069 7.7668 9.65734 9.22627 7.95913C10.6857 6.26092 12.708 5.12287 14.9371 4.74521C17.1663 4.36755 19.4596 4.77448 21.4136 5.8944C23.3675 7.01433 24.8569 8.77549 25.6197 10.868L28.3144 8.0621L30.2249 10.0381C29.3498 7.1409 27.5461 4.59877 25.0822 2.79007C22.6183 0.981376 19.6258 0.0028033 16.5503 0Z" fill="#676F79"/>
<path d="M7.47781 17.0957C8.23803 19.1822 9.72073 20.9396 11.6665 22.0603C13.6122 23.1811 15.897 23.5939 18.1212 23.2266C20.3454 22.8592 22.3673 21.735 23.8332 20.0506C25.299 18.3663 26.1154 16.2292 26.1396 14.0131H23.646L28.3114 9.17188L32.997 14.0131H30.805C30.8013 17.357 29.5804 20.5893 27.363 23.126C25.1457 25.6627 22.0781 27.3364 18.7145 27.8446C15.351 28.3529 11.9133 27.6623 9.02272 25.8975C6.13213 24.1328 3.97927 21.4103 2.95312 18.222L4.70267 20.0201L7.47781 17.0957Z" fill="#676F79"/>
<path d="M12.1905 19.7161V11.1719C12.0164 11.3772 11.7771 11.5443 11.4725 11.6732C11.1678 11.7973 10.8801 11.8594 10.6094 11.8594V9.84701C10.8656 9.80881 11.1412 9.72765 11.4362 9.60352C11.7311 9.47461 12.0043 9.30035 12.2557 9.08073C12.512 8.85634 12.7078 8.58659 12.8432 8.27148H14.8957V19.7161H12.1905Z" fill="#676F79"/>
<path d="M19.0153 19.8307C17.9371 19.8307 17.103 19.5323 16.5131 18.9355C15.9281 18.3388 15.6355 17.4794 15.6355 16.3574V11.8379C15.6355 10.6539 15.9136 9.74674 16.4696 9.11654C17.0305 8.48155 17.879 8.16406 19.0153 8.16406C20.1564 8.16406 21.005 8.48155 21.561 9.11654C22.1171 9.74674 22.3951 10.6539 22.3951 11.8379V16.3574C22.3951 17.4794 22.1026 18.3388 21.5175 18.9355C20.9325 19.5323 20.0984 19.8307 19.0153 19.8307ZM19.0153 17.5104C19.2136 17.5104 19.3683 17.4221 19.4795 17.2454C19.5907 17.0688 19.6463 16.8707 19.6463 16.651V11.5944C19.6463 11.2984 19.6125 11.0406 19.5448 10.821C19.4819 10.5966 19.3054 10.4844 19.0153 10.4844C18.7252 10.4844 18.5463 10.5966 18.4786 10.821C18.4157 11.0406 18.3843 11.2984 18.3843 11.5944V16.651C18.3843 16.8707 18.4399 17.0688 18.5511 17.2454C18.6672 17.4221 18.8219 17.5104 19.0153 17.5104Z" fill="#676F79"/>
</g>
<defs>
<clipPath id="clip0_986_314289">
<rect width="33" height="28" fill="white"/>
</clipPath>
</defs>
</svg>
