<svg width="36" height="28" viewBox="0 0 36 28" fill="none" xmlns="http://www.w3.org/2000/svg">
<path d="M35.0765 20.4972L21.5011 1.82666C20.7869 0.846661 19.7341 0.204735 18.5726 0.0411554C17.4112 -0.122424 16.2356 0.205644 15.3028 0.95367C14.9947 1.20859 14.7169 1.5017 14.4753 1.82666L0.907694 20.4972C0.406953 21.1894 0.09963 22.0155 0.0204288 22.8822C-0.0587724 23.7489 0.0933054 24.6218 0.459488 25.4021C0.82567 26.1825 1.39137 26.8392 2.0927 27.2983C2.79403 27.7574 3.60305 28.0004 4.4284 28H31.587C32.4116 27.9989 33.2195 27.7544 33.9192 27.2942C34.6189 26.8339 35.1826 26.1763 35.5465 25.3956C35.9104 24.615 36.06 23.7425 35.9783 22.8768C35.8966 22.0111 35.5869 21.1868 35.0843 20.4972H35.0765ZM31.5792 25.1998H4.42059C4.03601 25.1981 3.66173 25.0685 3.35111 24.8292C2.98103 24.5277 2.73891 24.0841 2.67749 23.5951C2.61608 23.1061 2.74035 22.6113 3.02324 22.2185L16.5986 3.56442C16.6916 3.43068 16.802 3.31146 16.9265 3.21028C17.2944 2.91095 17.7596 2.77755 18.2205 2.83929C18.6814 2.90104 19.1003 3.15288 19.3855 3.53971L32.9688 22.1938C33.2499 22.5886 33.3717 23.0847 33.3073 23.5739C33.2429 24.063 32.9978 24.5054 32.6253 24.8045C32.3165 25.0426 31.9459 25.1749 31.5636 25.1834L31.5792 25.1998Z" fill="#5A5C61"/>
<path d="M24.4637 12.743C24.5458 12.6566 24.611 12.5539 24.6554 12.4408C24.6999 12.3278 24.7228 12.2066 24.7228 12.0842C24.7228 11.9618 24.6999 11.8406 24.6554 11.7275C24.611 11.6144 24.5458 11.5117 24.4637 11.4253C24.3823 11.3376 24.2851 11.268 24.1779 11.2205C24.0706 11.1729 23.9555 11.1484 23.8392 11.1484C23.7228 11.1484 23.6077 11.1729 23.5005 11.2205C23.3932 11.268 23.2961 11.3376 23.2146 11.4253L17.9297 17.0009C17.8743 17.0596 17.8037 17.0997 17.7267 17.1162C17.6719 17.1324 17.6145 17.1369 17.558 17.1295C17.5015 17.122 17.4469 17.1028 17.3975 17.0729C17.3481 17.043 17.3049 17.003 17.2702 16.9553C17.2356 16.9076 17.2103 16.8531 17.1959 16.795L16.5948 14.4643C16.5326 14.2258 16.3838 14.0229 16.1806 13.8995C15.9774 13.7762 15.7363 13.7423 15.5097 13.8054C15.2914 13.8659 15.1034 14.0123 14.9844 14.2145C14.8653 14.4167 14.8242 14.6594 14.8696 14.8926L15.9156 19.0599C15.9996 19.378 16.1993 19.6483 16.4712 19.8118C16.7432 19.9753 17.0654 20.0188 17.3676 19.9329C17.5697 19.8761 17.7533 19.7622 17.8985 19.6034L24.4637 12.743Z" fill="#5A5C61"/>
<path d="M20.7211 8.38025C19.2396 7.80805 17.6306 7.71205 16.0975 8.10439C14.5643 8.49673 13.1759 9.3598 12.1076 10.5845C11.0393 11.8092 10.3391 13.3405 10.0956 14.985C9.85211 16.6294 10.0762 18.3131 10.7395 19.8232C11.4028 21.3333 12.4756 22.602 13.8223 23.469C15.1689 24.336 16.729 24.7623 18.3053 24.6941C19.8816 24.6258 21.4033 24.0661 22.6781 23.0856C23.9529 22.1052 24.9236 20.748 25.4674 19.1856C25.7861 18.2643 25.9524 17.2921 25.9592 16.3113C25.9592 16.0623 25.8654 15.8235 25.6985 15.6474C25.5316 15.4714 25.3053 15.3724 25.0692 15.3724C24.8332 15.3724 24.6069 15.4714 24.44 15.6474C24.2731 15.8235 24.1793 16.0623 24.1793 16.3113C24.1809 17.605 23.8186 18.8701 23.1385 19.9465C22.4584 21.023 21.4909 21.8624 20.3584 22.3586C19.2259 22.8548 17.9794 22.9855 16.7766 22.7341C15.5737 22.4827 14.4685 21.8606 13.6009 20.9464C12.7333 20.0322 12.1422 18.867 11.9024 17.5983C11.6626 16.3296 11.7849 15.0144 12.2538 13.819C12.7227 12.6236 13.5171 11.6019 14.5366 10.883C15.5561 10.1641 16.7548 9.78034 17.981 9.78034C18.7027 9.77982 19.4189 9.91364 20.0965 10.1757C20.3253 10.254 20.5742 10.2339 20.7891 10.1198C21.0039 10.0057 21.1674 9.80674 21.2441 9.56621C21.3159 9.33656 21.3017 9.08664 21.2045 8.86766C21.1072 8.64869 20.9343 8.47725 20.7211 8.38849V8.38025Z" fill="#5A5C61"/>
</svg>
