<svg width="208" height="40" viewBox="0 0 208 40" fill="none" xmlns="http://www.w3.org/2000/svg">
<path fill-rule="evenodd" clip-rule="evenodd" d="M154.5 25.8499H146.5V25.1499H154.5V25.8499Z" fill="#838691"/>
<path d="M92.6921 14.1277H94.6878C94.5352 12.6682 93.2105 11.6277 91.4918 11.6277C89.5316 11.6277 87.9407 12.9771 87.9407 15.3777C87.9407 17.6788 89.3824 19.0993 91.506 19.0993C93.4094 19.0993 94.7731 17.9345 94.7731 15.9458V14.9373H91.5486V16.3436H92.8696C92.8519 16.9757 92.4044 17.3805 91.5202 17.3805C90.4975 17.3805 89.9719 16.6277 89.9719 15.3493C89.9719 14.0886 90.5401 13.3464 91.5344 13.3464C92.1523 13.3464 92.5713 13.6305 92.6921 14.1277Z" fill="#838691"/>
<path d="M96.6936 19H101.921V17.4091H98.668V16.1591H101.665V14.5682H98.668V13.3182H101.935V11.7273H96.6936V19Z" fill="#838691"/>
<path d="M110.207 11.7273H108.233V15.5341H108.176L105.591 11.7273H103.914V19H105.889V15.179H105.931L108.559 19H110.207V11.7273Z" fill="#838691"/>
<path d="M116.445 11.7273V16.2159C116.445 16.8942 115.958 17.3807 115.28 17.3807C114.602 17.3807 114.115 16.8942 114.115 16.2159V11.7273H112.141V16.3863C112.141 18.0483 113.398 19.0852 115.28 19.0852C117.148 19.0852 118.419 18.0483 118.419 16.3863V11.7273H116.445Z" fill="#838691"/>
<path d="M122.332 11.7273H120.358V19H122.332V11.7273Z" fill="#838691"/>
<path d="M130.561 11.7273H128.586V15.5341H128.53L125.944 11.7273H124.268V19H126.242V15.179H126.285L128.913 19H130.561V11.7273Z" fill="#838691"/>
<path d="M132.494 19H137.722V17.4091H134.469V16.1591H137.466V14.5682H134.469V13.3182H137.736V11.7273H132.494V19Z" fill="#838691"/>
<path d="M142.707 19H144.682V16.8409H145.775C147.434 16.8409 148.546 15.8643 148.546 14.2983C148.546 12.75 147.462 11.7273 145.846 11.7273H142.707V19ZM144.682 15.3068V13.3039H145.378C146.07 13.3039 146.486 13.6733 146.486 14.2983C146.486 14.9197 146.07 15.3068 145.378 15.3068H144.682Z" fill="#838691"/>
<path d="M150.27 19H152.244V16.5995H152.926L154.205 19H156.35L154.872 16.2869C155.646 15.914 156.108 15.2074 156.108 14.1988C156.108 12.6506 155.025 11.7273 153.409 11.7273H150.27V19ZM152.244 15.0653V13.3039H152.94C153.633 13.3039 154.048 13.5739 154.048 14.1988C154.048 14.8203 153.633 15.0653 152.94 15.0653H152.244Z" fill="#838691"/>
<path d="M164.995 15.3634C164.995 12.9345 163.433 11.6277 161.458 11.6277C159.47 11.6277 157.921 12.9345 157.921 15.3634C157.921 17.7782 159.47 19.0993 161.458 19.0993C163.433 19.0993 164.995 17.7924 164.995 15.3634ZM162.964 15.3634C162.964 16.6702 162.438 17.3805 161.458 17.3805C160.478 17.3805 159.952 16.6702 159.952 15.3634C159.952 14.0566 160.478 13.3464 161.458 13.3464C162.438 13.3464 162.964 14.0566 162.964 15.3634Z" fill="#838691"/>
<path d="M169.706 19C171.922 19 173.329 17.6363 173.329 15.3636C173.329 13.0909 171.922 11.7273 169.678 11.7273H166.909V19H169.706ZM168.883 17.3239V13.4034H169.579C170.715 13.4034 171.34 13.8438 171.34 15.3636C171.34 16.8835 170.715 17.3239 169.636 17.3239H168.883Z" fill="#838691"/>
<path d="M179.546 11.7273V16.2159C179.546 16.8942 179.06 17.3807 178.382 17.3807C177.703 17.3807 177.217 16.8942 177.217 16.2159V11.7273H175.242V16.3863C175.242 18.0483 176.499 19.0852 178.382 19.0852C180.25 19.0852 181.521 18.0483 181.521 16.3863V11.7273H179.546Z" fill="#838691"/>
<path d="M190.249 14.4543C190.093 12.6504 188.772 11.6277 186.939 11.6277C184.979 11.6277 183.431 12.9345 183.431 15.3634C183.431 17.7818 184.937 19.0993 186.939 19.0993C189.07 19.0993 190.15 17.622 190.249 16.3862L188.246 16.372C188.146 16.9934 187.706 17.3805 186.982 17.3805C186.02 17.3805 185.462 16.6986 185.462 15.3634C185.462 14.0993 186.002 13.3464 186.996 13.3464C187.756 13.3464 188.19 13.7938 188.246 14.4543H190.249Z" fill="#838691"/>
<path d="M191.946 13.3182H194.134V19H196.079V13.3182H198.267V11.7273H191.946V13.3182Z" fill="#838691"/>
<path d="M91.2108 22.9089V26.1579C91.2108 26.7967 90.7659 27.2541 90.0674 27.2541C89.3663 27.2541 88.9239 26.7967 88.9239 26.1579V22.9089H88.0017V26.2349C88.0017 27.3287 88.8219 28.0769 90.0674 28.0769C91.3078 28.0769 92.1331 27.3287 92.1331 26.2349V22.9089H91.2108Z" fill="#838691"/>
<path d="M93.8354 27.9999H95.8962C97.062 27.9999 97.6338 27.4057 97.6338 26.6128C97.6338 25.8422 97.0869 25.3897 96.545 25.3625V25.3127C97.0421 25.1959 97.4349 24.8479 97.4349 24.2289C97.4349 23.4708 96.888 22.9089 95.7843 22.9089H93.8354V27.9999ZM94.7577 27.2293V25.7378H95.7743C96.3436 25.7378 96.6966 26.0858 96.6966 26.5407C96.6966 26.9459 96.4182 27.2293 95.7495 27.2293H94.7577ZM94.7577 25.0741V23.6696H95.6898C96.2318 23.6696 96.5126 23.9555 96.5126 24.3482C96.5126 24.7957 96.1497 25.0741 95.6699 25.0741H94.7577Z" fill="#838691"/>
<path d="M100.058 22.9089H99.136V27.9999H100.058V22.9089Z" fill="#838691"/>
<path d="M106.306 25.4544C106.306 23.8088 105.302 22.8394 103.967 22.8394C102.629 22.8394 101.628 23.8088 101.628 25.4544C101.628 27.0975 102.629 28.0695 103.967 28.0695C104.29 28.0695 104.593 28.0123 104.869 27.903L105.289 28.4374H106.184L105.478 27.5326C105.99 27.0851 106.306 26.3766 106.306 25.4544ZM103.654 26.2897L104.342 27.1945C104.223 27.2268 104.099 27.2417 103.967 27.2417C103.139 27.2417 102.555 26.6128 102.555 25.4544C102.555 24.2961 103.139 23.6671 103.967 23.6671C104.797 23.6671 105.379 24.2961 105.379 25.4544C105.379 26.0809 105.21 26.5506 104.921 26.8514L104.489 26.2897H103.654Z" fill="#838691"/>
<path d="M111.094 22.9089V26.1579C111.094 26.7967 110.649 27.2541 109.95 27.2541C109.249 27.2541 108.807 26.7967 108.807 26.1579V22.9089H107.884V26.2349C107.884 27.3287 108.705 28.0769 109.95 28.0769C111.191 28.0769 112.016 27.3287 112.016 26.2349V22.9089H111.094Z" fill="#838691"/>
<path d="M114.64 22.9089H113.718V27.9999H114.64V22.9089Z" fill="#838691"/>
<path d="M116.116 23.6821H117.689V27.9999H118.604V23.6821H120.177V22.9089H116.116V23.6821Z" fill="#838691"/>
<path d="M122.583 22.9089H121.66V27.9999H122.583V22.9089Z" fill="#838691"/>
<path d="M127.64 22.9089H126.717V27.9999H127.64V22.9089Z" fill="#838691"/>
<path d="M133.522 22.9089H132.605V26.3791H132.56L130.164 22.9089H129.338V27.9999H130.261V24.5321H130.303L132.702 27.9999H133.522V22.9089Z" fill="#838691"/>
<path d="M139.585 24.6266C139.428 23.4956 138.558 22.8394 137.43 22.8394C136.099 22.8394 135.098 23.8088 135.098 25.4544C135.098 27.0975 136.087 28.0695 137.43 28.0695C138.64 28.0695 139.443 27.2865 139.585 26.3145L138.655 26.3095C138.539 26.9062 138.051 27.2417 137.442 27.2417C136.617 27.2417 136.025 26.6227 136.025 25.4544C136.025 24.306 136.611 23.6671 137.444 23.6671C138.063 23.6671 138.548 24.0177 138.655 24.6266H139.585Z" fill="#838691"/>
<path d="M141.644 28.0546C141.937 28.0546 142.188 27.811 142.19 27.5077C142.188 27.2095 141.937 26.9658 141.644 26.9658C141.34 26.9658 141.094 27.2095 141.097 27.5077C141.094 27.811 141.34 28.0546 141.644 28.0546Z" fill="#838691"/>
<path d="M158.502 27.9999H161.833V27.2268H159.424V25.8373H161.641V25.0641H159.424V23.6821H161.813V22.9089H158.502V27.9999Z" fill="#838691"/>
<path d="M166.22 24.3085H167.108C167.09 23.4484 166.357 22.8394 165.273 22.8394C164.204 22.8394 163.402 23.441 163.404 24.3408C163.404 25.0716 163.923 25.4917 164.761 25.708L165.34 25.8571C165.89 25.9963 166.253 26.1678 166.255 26.5631C166.253 26.9981 165.84 27.289 165.238 27.289C164.662 27.289 164.214 27.0304 164.177 26.496H163.27C163.307 27.5077 164.06 28.077 165.246 28.077C166.466 28.077 167.174 27.4679 167.178 26.5706C167.174 25.6881 166.446 25.2854 165.681 25.1039L165.203 24.9846C164.786 24.8852 164.334 24.7087 164.338 24.2836C164.341 23.9008 164.684 23.6199 165.261 23.6199C165.81 23.6199 166.173 23.8759 166.22 24.3085Z" fill="#838691"/>
<path d="M168.476 23.6821H170.05V27.9999H170.964V23.6821H172.538V22.9089H168.476V23.6821Z" fill="#838691"/>
<path d="M174.296 28.0546C174.589 28.0546 174.84 27.811 174.842 27.5077C174.84 27.2095 174.589 26.9658 174.296 26.9658C173.993 26.9658 173.746 27.2095 173.749 27.5077C173.746 27.811 173.993 28.0546 174.296 28.0546Z" fill="#838691"/>
<path d="M178.741 27.9999H182.231V27.2293H180.014V27.1945L180.891 26.3021C181.881 25.3525 182.154 24.8902 182.154 24.3159C182.154 23.4633 181.46 22.8394 180.436 22.8394C179.427 22.8394 178.711 23.4658 178.711 24.4328H179.589C179.589 23.9132 179.917 23.5876 180.424 23.5876C180.909 23.5876 181.269 23.8834 181.269 24.3632C181.269 24.7882 181.01 25.0915 180.508 25.6011L178.741 27.3337V27.9999Z" fill="#838691"/>
<path d="M185.67 28.0968C186.898 28.0993 187.632 27.1298 187.632 25.4594C187.632 23.7989 186.894 22.8394 185.67 22.8394C184.447 22.8394 183.711 23.7964 183.709 25.4594C183.709 27.1274 184.442 28.0968 185.67 28.0968ZM185.67 27.3188C185.037 27.3188 184.638 26.6824 184.641 25.4594C184.644 24.2463 185.039 23.6075 185.67 23.6075C186.304 23.6075 186.699 24.2463 186.702 25.4594C186.702 26.6824 186.306 27.3188 185.67 27.3188Z" fill="#838691"/>
<path d="M191.039 28.0968C192.267 28.0993 193.001 27.1298 193.001 25.4594C193.001 23.7989 192.262 22.8394 191.039 22.8394C189.816 22.8394 189.081 23.7964 189.078 25.4594C189.078 27.1274 189.811 28.0968 191.039 28.0968ZM191.039 27.3188C190.406 27.3188 190.008 26.6824 190.01 25.4594C190.013 24.2463 190.408 23.6075 191.039 23.6075C191.673 23.6075 192.068 24.2463 192.071 25.4594C192.071 26.6824 191.676 27.3188 191.039 27.3188Z" fill="#838691"/>
<path d="M196.296 28.0695C197.373 28.0695 198.123 27.3386 198.123 26.3269C198.123 25.3475 197.443 24.6416 196.518 24.6416C196.105 24.6416 195.739 24.8056 195.551 25.0293H195.521L195.667 23.6796H197.858V22.9089H194.904L194.639 25.534L195.471 25.6707C195.643 25.4817 195.966 25.3549 196.271 25.3575C196.831 25.36 197.234 25.7726 197.231 26.3493C197.234 26.9185 196.841 27.3237 196.296 27.3237C195.837 27.3237 195.467 27.0329 195.434 26.6153H194.539C194.564 27.4605 195.303 28.0695 196.296 28.0695Z" fill="#838691"/>
<rect x="10" width="56" height="40" fill="white"/>
<path d="M41.9973 0H4.11458C1.84216 0 0 1.86548 0 4.16667V35.8333C0 38.1345 1.84216 40 4.11458 40H31.6399C21.8928 35.7272 15.6354 29.1032 15.6354 21.6667C15.6354 11.8465 26.547 3.44316 41.9973 0Z" fill="#838691"/>
<path d="M55.9583 40V39.9886C36.3052 39.6257 20.5729 30.6288 20.5729 19.5833C20.5729 10.3196 31.6391 2.4968 46.8034 0H74.8854C77.1578 0 79 1.86548 79 4.16667V35.8333C79 38.1345 77.1578 40 74.8854 40H55.9583Z" fill="#838691"/>
<path d="M10 17C11.1575 16.1896 12.1651 15.847 13.3642 15.4544C16.6702 14.3515 16.2538 11.912 15.3794 9.38882C14.9381 8.11054 14.8798 7.0662 15.4794 5.52057L14.147 4.40103C12.7647 4.91902 11.0992 4.74357 9.99167 4C8.89247 4.74357 7.22701 4.91902 5.84468 4.40103L4.52064 5.52057C5.12021 7.0662 5.06192 8.11054 4.62057 9.38882C3.74621 11.9203 3.32984 14.3599 6.63577 15.4544C7.8349 15.847 8.83418 16.1896 10 17Z" fill="white"/>
<path d="M12.8614 9.33844H12.25V9.27711C12.25 9.04053 12.2337 8.56736 12.1114 8.03286C11.9891 7.50712 11.7609 6.90252 11.2717 6.47317C10.9457 6.18401 10.4973 6 9.9837 6C9.46196 6 9.02174 6.17525 8.69565 6.47317C8.20652 6.90252 7.97826 7.50712 7.85598 8.03286C7.7337 8.56736 7.71739 9.04053 7.71739 9.27711V9.33844H7.13859C7.05707 9.33844 7 9.41731 7 9.51369V10.5214C7 10.6177 7.05707 10.6966 7.13859 10.6966H12.8614C12.9429 10.6966 13 10.6177 13 10.5214V9.51369C13 9.41731 12.9348 9.33844 12.8614 9.33844ZM11.3288 9.33844H8.63859V9.27711C8.63859 9.03176 8.6712 8.38335 8.86685 7.86637C8.96467 7.61227 9.10326 7.39321 9.27446 7.24425C9.44565 7.09529 9.64946 6.9989 9.9837 6.9989C10.3098 6.9989 10.5136 7.09529 10.6929 7.24425C10.8641 7.39321 10.9946 7.61227 11.1005 7.86637C11.3043 8.38335 11.337 9.03176 11.337 9.27711V9.33844H11.3288ZM12.8614 10.9858H7.13859C7.05707 10.9858 7 11.0646 7 11.1698V12.1774C7 12.2738 7.05707 12.3527 7.13859 12.3527H12.8614C12.9429 12.3527 13 12.2738 13 12.1774V11.1698C13 11.0646 12.9348 10.9858 12.8614 10.9858ZM12.8614 12.6418H7.13859C7.05707 12.6418 7 12.7207 7 12.8171V13.8248C7 13.9211 7.05707 14 7.13859 14H12.8614C12.9429 14 13 13.9211 13 13.8248V12.8171C13 12.7207 12.9348 12.6418 12.8614 12.6418Z" fill="#838691"/>
<path d="M71.1246 6H69.3749V7.73622H71.1246V6Z" fill="white"/>
<path d="M65.0021 18.1598V14.6811L65.0031 14.6821H68.5016V18.1546H72V19.2552C72 20.5274 71.891 22.0348 71.6404 23.2186C71.4999 23.8802 71.2871 24.5377 71.0376 25.1691C70.7818 25.8151 70.4872 26.4341 70.1664 26.9886C69.7481 27.7126 69.2637 28.4075 68.7018 29.0608L68.6721 29.0952L68.6232 29.1521C68.4882 29.3093 68.3547 29.4646 68.208 29.6163C68.0371 29.7973 67.86 29.9689 67.6797 30.1406C65.4403 32.2804 62.5227 33.6172 59.4719 33.9241C59.105 33.9615 58.368 34 58 34C57.631 33.999 56.895 33.9615 56.5281 33.9241C53.4773 33.6172 50.5597 32.2794 48.3203 30.1406C48.14 29.9689 47.9629 29.7973 47.792 29.6163C47.638 29.458 47.4992 29.2958 47.3588 29.1317L47.3584 29.1311L47.2982 29.0608C46.7362 28.4075 46.2519 27.7126 45.8336 26.9886C45.5128 26.433 45.2182 25.8151 44.9624 25.1691C44.7129 24.5377 44.5001 23.8802 44.3596 23.2186C44.109 22.0337 44 20.5274 44 19.2552V6.21742H50.9979V18.1598C50.9979 18.1598 50.9979 19.0752 51.0094 19.3748L51.0121 19.4447V19.4451C51.0268 19.8326 51.0412 20.2121 51.0818 20.5898C51.1971 21.6624 51.4361 22.6797 51.9288 23.5401C52.0714 23.7887 52.2161 24.03 52.3891 24.2589C53.4417 25.6518 55.0436 26.6973 57.0418 26.9886C57.2798 27.0229 57.7599 27.0531 58 27.0531C58.2401 27.0531 58.7202 27.0229 58.9582 26.9886C60.9564 26.6973 62.5583 25.6518 63.6109 24.2589C63.7849 24.03 63.9285 23.7887 64.0711 23.5401C64.5639 22.6797 64.8029 21.6624 64.9182 20.5898C64.9588 20.2114 64.9733 19.8312 64.9879 19.4429L64.9906 19.3748C65.0021 19.0752 65.0021 18.1598 65.0021 18.1598Z" fill="white"/>
<path d="M65.8754 8.60484H68.5005L68.5005 11.2086H72V14.6811H68.5005L68.5005 11.2097H65.8754V8.60484Z" fill="white"/>
</svg>
