<svg viewBox="0 0 512 151.66" xmlns="http://www.w3.org/2000/svg" xmlns:xlink="http://www.w3.org/1999/xlink"><linearGradient id="a" gradientUnits="userSpaceOnUse" x1="105.28" x2="92.53" y1="97.95" y2="72.93"><stop offset="0" stop-color="#facd8a"/><stop offset="1" stop-color="#f5906c"/></linearGradient><linearGradient id="b" gradientUnits="userSpaceOnUse" x1="95.43" x2="45.64" y1="85.64" y2="137.2"><stop offset="0" stop-color="#e62d38"/><stop offset="1" stop-color="#78459a"/></linearGradient><linearGradient id="c" gradientUnits="userSpaceOnUse" x1="94.11" x2="46.97" y1="86.49" y2="35.94"><stop offset="0" stop-color="#e5eba5"/><stop offset="1" stop-color="#38bbba"/></linearGradient><linearGradient id="d" gradientUnits="userSpaceOnUse" x1="62.88" x2="62.88" y1="157.94" y2="14.84"><stop offset="0" stop-color="#8dd1cd"/><stop offset="1" stop-color="#006f8c"/></linearGradient><path d="m20.72 0h470.56a20.72 20.72 0 0 1 20.72 20.72v110.21a20.73 20.73 0 0 1 -20.73 20.73h-470.55a20.72 20.72 0 0 1 -20.72-20.73v-110.21a20.72 20.72 0 0 1 20.72-20.72z"/><path d="m184.95 83.14h-23.95v7.11h17c-.84 10-9.14 14.23-17 14.23a19 19 0 0 1 0-38 18.45 18.45 0 0 1 12.82 5.14l5-5.16a25.32 25.32 0 0 0 -18.05-7.12 26.13 26.13 0 1 0 .38 52.26c14 0 24.23-9.58 24.23-23.76a21.33 21.33 0 0 0 -.43-4.72zm20.47 1.45c4.84 0 9.42 3.91 9.42 10.21s-4.56 10.2-9.44 10.2c-5.36 0-9.59-4.29-9.59-10.24s4.18-10.16 9.61-10.16zm-.1-6.6a16.8 16.8 0 1 0 16.85 16.85c0-11.12-8.77-16.85-16.85-16.85zm37.23 6.6c4.84 0 9.42 3.91 9.42 10.21s-4.57 10.2-9.45 10.2c-5.36 0-9.59-4.29-9.59-10.24s4.18-10.16 9.61-10.16zm-.1-6.6a16.8 16.8 0 1 0 16.85 16.85c0-11.12-8.77-16.85-16.85-16.85zm37.01 6.6c4.43 0 9 3.78 9 10.23s-4.56 10.18-9.1 10.18c-4.81 0-9.29-3.91-9.29-10.11 0-6.45 4.65-10.3 9.39-10.3zm-.65-6.59c-9 0-16.12 7.91-16.12 16.78 0 10.11 8.23 16.81 16 16.81a11.1 11.1 0 0 0 9.21-4.08v3.31c0 5.79-3.52 9.26-8.83 9.26a9.31 9.31 0 0 1 -8.6-6l-6.46 2.7c2.29 4.84 6.9 9.89 15.11 9.89 9 0 15.82-5.65 15.82-17.51v-30.16h-7v2.85a11.88 11.88 0 0 0 -9.13-3.85zm49.19 6.43a6.7 6.7 0 0 1 6.21 3.57l-15 6.29c-.65-4.87 4-9.87 8.82-9.87zm-.3-6.43c-8.52 0-15.7 6.74-15.7 16.74 0 10.58 8 16.85 16.48 16.85a17 17 0 0 0 14.07-7.37l-5.81-3.86a9.4 9.4 0 0 1 -8.23 4.62c-4.72 0-6.89-2.59-8.24-5.09l22.52-9.35-1.17-2.74a15.21 15.21 0 0 0 -14-9.84z" fill="#fff" fill-rule="evenodd"/><path d="m300.55 61.09h7.4v49.51h-7.4z" fill="#fff"/><path d="m95.63 98.2 16.75-9.2c1.89-1 3.88-3.68 0-5.8l-16.76-9.11-12 12.09z" fill="url(#a)" fill-rule="evenodd"/><path d="m83.62 86.18-38.39 38.68a5.22 5.22 0 0 0 3.11-.78l47.29-25.88z" fill="url(#b)" fill-rule="evenodd"/><path d="m83.62 86.18 12-12.09-47.28-25.79a5 5 0 0 0 -3.34-.45z" fill="url(#c)" fill-rule="evenodd"/><path d="m83.62 86.18-38.62-38.33c-1.59.36-2.88 1.74-2.86 4.5 0 4.48.32 64.24.34 68 0 2.6 1 4.42 2.94 4.59z" fill="url(#d)" fill-rule="evenodd"/><g fill="#fff"><path d="m399.74 61.09h7.4v49.51h-7.4zm-39.23 0h7.4v49.51h-7.4z"/><path d="m360.51 61.09h17.89a15.82 15.82 0 0 1 15.77 15.77 15.82 15.82 0 0 1 -15.77 15.77h-17.89zm7.4 7.4v16.75h10.5a8.37 8.37 0 1 0 0-16.75zm93.84 58.22 21.42-48.74h-8.08l-21.42 48.74z" fill-rule="evenodd"/><path d="m464.14 115.56-16.51-37.59h8.08l11.39 25.92h-2.96zm-26.73-4.96h7.4v-17.81c1.16-18.36-22.12-22.68-30.93-9.45l6 4c4.31-7.53 16.6-5.8 17.41 2.27a32.79 32.79 0 0 0 -11.39-1.31c-5.69.58-10.56 4.19-11.34 10.11-.42 3.2.3 7.14 2.53 9.55 3.48 3.74 9.19 4.25 13.89 3a12.73 12.73 0 0 0 6.43-4.32v4zm0-14.31a11.14 11.14 0 0 1 -8.19 8.18c-8.55 2.33-10.68-11.57 2-9.66a31.73 31.73 0 0 1 6.19 1.48zm-278.49-65.29h-10.92v3.24h7.74c-.38 4.54-4.16 6.48-7.72 6.48a8.65 8.65 0 0 1 0-17.29 8.4 8.4 0 0 1 5.83 2.34l2.27-2.35a11.52 11.52 0 0 0 -8.22-3.24 12.09 12.09 0 0 0 -12 11.86 12 12 0 0 0 12.16 11.92c6.37 0 11-4.36 11-10.81a9.7 9.7 0 0 0 -.2-2.15z" fill-rule="evenodd"/><path d="m203.51 20.94h3.37v22.53h-3.37z"/><path d="m184.66 43.47h3.34v-19.17h5.53v-3.36h-14.4v3.36h5.53zm-21.99 0h12.91v-3.37h-9.58v-6.22h8.4v-3.36h-8.4v-6.22h9.54v-3.36h-12.87zm52.47 0h3.37v-19.17h5.49v-3.36h-14.38v3.36h5.53zm29.54-2.79a8.65 8.65 0 1 1 8.44-8.62 8.51 8.51 0 0 1 -8.44 8.62zm0-20.54a12.09 12.09 0 0 0 -11.98 11.86 12 12 0 0 0 24 0 12.09 12.09 0 0 0 -12.02-11.86zm15.35 23.33h3.36v-16.42l10.82 16.42h3.36v-22.54h-3.37v16.41l-10.81-16.41h-3.36z" fill-rule="evenodd"/></g><path d="m95.63 98.2 16.75-9.2c1.89-1 3.88-3.68 0-5.8l-16.76-9.11-12 12.09z" fill="url(#a)" fill-rule="evenodd"/><path d="m83.62 86.18-38.39 38.68a5.22 5.22 0 0 0 3.11-.78l47.29-25.88z" fill="url(#b)" fill-rule="evenodd"/><path d="m83.62 86.18 12-12.09-47.28-25.79a5 5 0 0 0 -3.34-.45z" fill="url(#c)" fill-rule="evenodd"/><path d="m83.62 86.18-38.62-38.33c-1.59.36-2.88 1.74-2.86 4.5 0 4.48.32 64.24.34 68 0 2.6 1 4.42 2.94 4.59z" fill="url(#d)" fill-rule="evenodd"/></svg>