<?xml version="1.0" encoding="utf-8"?>
<!-- Generator: Adobe Illustrator 25.2.3, SVG Export Plug-In . SVG Version: 6.00 Build 0)  -->
<svg version="1.1" id="Layer_1" xmlns="http://www.w3.org/2000/svg" xmlns:xlink="http://www.w3.org/1999/xlink" x="0px" y="0px"
	 viewBox="0 0 1404.1 344" style="enable-background:new 0 0 1404.1 344;" xml:space="preserve">
<style type="text/css">
	.st0{fill:#FFFFFF;}
</style>
<g>
	<path class="st0" d="M269.3,0.2H74.5C33.3,0.2,0,33.5,0,74.6v194.9C0,310.6,33.3,344,74.5,344h194.9c41.1,0,74.4-33.3,74.5-74.5
		V74.6C343.8,33.5,310.5,0.2,269.3,0.2C269.4,0.2,269.3,0.2,269.3,0.2L269.3,0.2z M234.7,141.7c9.7-30.3,27.7-29.1,51.5-22.4
		c0.4,11.9-1,14-9.4,14.3H263c1.2,7.6,12.4,5.7,17.3,5.4l-1.5,8.8h-5c-7.8,34.8-35.2,31.8-50.7-1.3
		C219.5,139,227.9,130.8,234.7,141.7z M20.4,141.7c-0.4,0.6,55.7-57.6,122.9-34c25.5,9,62.3,25.7,62.3,25.7
		c-9.7,1.3-22.4,6.7-27.4,9.9c-39.4-19.1-95.3-18.9-136.1,21.3L20.4,141.7z M55.8,179c36.8-37.8,91.8-28.5,110.4-26.4
		c-10,6.8-15.5,11.3-32.6,30.9c-21.3-2.1-39.4,4-56.4,18.4L55.8,179z M91.3,217.4c8.8-11.3,24.8-17.9,35-16.2
		c-6.2,12,10.1,15.2,27,15.5c-2.8,11.9-29,13.7-41,23.2L91.3,217.4z M247.6,218.8c-52.4,27-113.8,24.2-118.9,22
		c-0.7-0.2-1.1-0.9-1-1.6c0.1-0.4,0.4-0.8,0.9-0.9c15.1-4.8,31.9-13.6,33.7-23.1c14.7-5.3,34.6-14.1,46.8-22.2
		c12.8-8.4,10.9-12.4,2.7-13.9c-8.2-1.5-35.5,0.2-43.3,4c-0.2,0.1-0.1,0.4,0.1,0.4c5.2-0.4,30.3-1.2,36.9-0.9
		c3.4,0.2,3.8,2.2,0.7,5.3c-6.8,6.8-44.6,20.3-63.8,20.6c-9.9,0.2-10.5-2.8-7.4-10.9c3-7.7,49.9-65.8,77.7-53.1
		c9.1,18.3,19.2,32.1,37.8,34.8c0,0,2.6,13.5,3.2,20.7C254.1,207.1,255.1,214.8,247.6,218.8L247.6,218.8z M303.1,175.7
		c-6.7,6.7-41.1,25.8-41.1,25.8l-4.2-22.5c8.2-1.3,12.7-7.1,18.1-19.3l37.3-10.5C329.6,142.9,321.6,161.8,303.1,175.7L303.1,175.7z"
		/>
	<path class="st0" d="M421.2,53h37.1l30.3,179h0.7l30.3-179h38.7l31,179.9h0.7l30-179.9h36.4l-45.7,230.2H568l-29.7-173.5h-0.7
		l-29.4,173.5h-42.5L421.2,53z"/>
	<path class="st0" d="M667.6,50.4h34.8v34.8h-34.8V50.4z M667.6,109.8h34.8v173.5h-34.8V109.8z"/>
	<path class="st0" d="M726.8,53h122.8v31h-86.1v63.9h80.9v31h-80.9v104.4h-36.7V53z"/>
	<path class="st0" d="M863.2,50.4H898v34.8h-34.8V50.4z M863.2,109.8H898v173.5h-34.8V109.8z"/>
	<path class="st0" d="M920.1,109.8h32.9v20.3h1c8.7-15.5,25.2-24.8,41.6-24.8c24.8,0,35.2,12,40.3,26.4c10-16.7,22.9-26.4,43.9-26.4
		c24.5,0,42.2,12.5,42.2,46.1v131.8h-34.9v-119c0-22.5-6.8-31.2-21-31.2s-27.7,11.3-27.7,33.9v116.4h-34.9v-119
		c0-22.5-6.8-31.2-21.3-31.2c-13.9,0-27.4,11.3-27.4,33.9v116.4h-34.8V109.8z"/>
	<path class="st0" d="M1258.2,247.1c0,6.5,3.8,12.2,9,12.2c2,0.1,3.9-0.2,5.8-1v22.5c-5.3,2.6-11.1,4.1-17,4.2
		c-15.5,0-28.4-6.2-29.4-22.9h-0.7c-9.3,17-22.9,25.5-43.2,25.5c-27.7,0-45.2-15.5-45.2-48.7c0-38.7,16.7-46.7,40.3-54.5l27.1-7.4
		c12.5-3.5,20.3-7.1,20.3-22.2c0-15.8-5.5-25.8-23.9-25.8c-23.2,0-26.4,16.5-26.4,33.2h-32.9c0-36.7,15.2-57.1,60.9-57.1
		c30.7,0,55.1,12,55.1,42.5v99.4L1258.2,247.1z M1225.3,191.7c-9,7.1-28.4,11.3-38.7,16.2c-10,4.8-14.2,15.2-14.2,28
		c0,14.5,7.1,26.2,21.6,26.2c21,0,31.2-15.8,31.2-41.2V191.7z"/>
	<path class="st0" d="M1282.6,109.8h32.9v20.3h1c8.7-15.5,25.2-24.8,44.5-24.8c26.4,0,43.2,12,43.2,47.1v130.9h-34.8v-119
		c0-22.5-6.8-31.2-24.2-31.2c-14.2,0-27.7,11.3-27.7,33.9v116.4h-34.8L1282.6,109.8L1282.6,109.8z"/>
</g>
</svg>
