<svg width="2846" height="344" viewBox="0 0 2846 344" fill="none" xmlns="http://www.w3.org/2000/svg">
<path d="M398.637 205.116C413.077 218.241 435.037 232.327 457.698 232.327C478.7 232.327 490.509 218.241 490.509 203.454C490.509 198.144 489.253 194.162 486.972 190.971C486.109 189.757 485.092 188.659 483.938 187.647C483.015 186.826 481.999 186.066 480.896 185.344L480.085 184.823L478.957 184.152L477.658 183.434C476.624 182.887 475.539 182.362 474.411 181.841L473.36 181.328L472.523 180.943L470.797 180.2L467.815 179.004L467.712 178.965C466.328 178.423 464.926 177.876 463.559 177.29C416.658 158.569 384.461 143.778 384.461 102.131C384.547 72.5584 408.788 34.1458 464.875 34.1458C494.098 34.1458 520.954 51.5598 539.684 72.819L509.846 103.007C497.687 89.182 480.358 76.7581 461.286 76.7581C444.573 76.7581 436.344 88.5711 436.344 100.73C436.344 118.405 451.135 124.006 465.225 129.257C512.119 146.316 543.273 161.367 543.273 202.053C543.273 232.852 517.023 275.55 457.963 275.55C424.801 275.55 394.612 259.102 371.687 236.526L398.637 205.116Z" fill="white"/>
<path d="M289.795 35.9829H341.328V273.803H289.795V35.9829Z" fill="white"/>
<path fill-rule="evenodd" clip-rule="evenodd" d="M634.444 273.888V193.128H663.146C716.43 193.128 757.906 172.215 757.906 114.205C757.906 56.1953 713.371 35.9829 663.146 35.9829H582.911V273.888H634.444ZM634.444 151.656V77.1084H663.146C687.823 77.1084 703.306 89.6178 703.306 114.906C703.306 140.194 688.43 151.656 663.146 151.656H634.444Z" fill="white"/>
<path d="M186.72 139.053V109.13H216.644V139.053H246.567V148.503C246.567 159.53 245.696 172.48 243.508 182.716C242.278 188.403 240.441 194.089 238.347 199.515C237.219 202.356 235.997 205.15 234.707 207.851C233.494 210.388 232.221 212.845 230.905 215.178C227.316 221.39 223.206 227.426 218.395 233.027C217.079 234.689 215.678 236.266 214.191 237.838C212.705 239.415 211.218 240.901 209.646 242.388C190.48 260.853 165.461 272.401 139.383 275.025C136.23 275.289 129.932 275.64 126.788 275.64L124.763 275.614L121.618 275.516L117.91 275.328C116.483 275.238 115.176 275.136 114.184 275.025C88.1061 272.401 63.0873 260.853 43.9216 242.388C42.3493 240.901 40.8626 239.415 39.3758 237.838L38.3931 236.761L36.7867 234.903L35.1718 233.027C30.3611 227.426 26.2512 221.39 22.6624 215.178C19.9537 210.452 17.416 205.116 15.2285 199.515C13.1265 194.089 11.2894 188.403 10.059 182.716C7.96555 172.48 7 159.441 7 148.503V35.9829H66.8469V139.053C66.8469 139.053 66.8469 147.017 66.9324 149.554L67.052 152.156L67.2485 156.296C67.3254 157.561 67.4194 158.813 67.5476 160.056C68.5131 169.331 70.6066 178.081 74.8106 185.515C76.0325 187.702 77.2629 189.714 78.7497 191.727C87.7643 203.715 101.41 212.73 118.559 215.267C120.661 215.528 124.686 215.789 126.788 215.789C128.881 215.789 133 215.528 135.008 215.267C152.072 212.73 165.811 203.715 174.817 191.727C175.279 191.103 175.715 190.471 176.133 189.83C177.065 188.407 177.911 186.963 178.757 185.515C180.739 182.016 182.251 178.226 183.396 174.223C184.678 169.724 185.507 164.965 186.02 160.056C186.37 156.553 186.541 153.143 186.635 149.554C186.72 146.931 186.72 139.053 186.72 139.053Z" fill="white"/>
<path d="M216.738 56.6311H194.248V79.1164L216.644 79.1207V95.9195L216.729 109.044H246.653V79.1207L216.738 79.1164V56.6311Z" fill="white"/>
<path d="M224.172 34.1458H239.133V49.1075H224.172V34.1458Z" fill="white"/>
<path d="M1448.96 53.0565C1448.96 43.0739 1440.65 34.7634 1430.34 34.7634C1420.35 34.7634 1412.04 42.7397 1412.04 53.0565C1412.04 63.3739 1420.02 72.0192 1430.34 72.0192C1440.65 72.0192 1448.96 63.7087 1448.96 53.0565Z" fill="white"/>
<path d="M1444.98 105.287H1416.03V272.938H1444.98V105.287Z" fill="white"/>
<path fill-rule="evenodd" clip-rule="evenodd" d="M954.992 272.938C999.915 272.938 1042.81 251.326 1063.44 210.082C1072.78 191.454 1075.1 166.805 1075.1 155.175C1075.1 143.546 1072.76 118.923 1063.44 100.296C1042.81 59.0259 999.915 37.4136 954.992 37.4136H879.812V272.938H954.992ZM993.251 238.667C981.595 243.35 968.964 245.665 954.992 245.665V245.64H909.091V64.6861H954.992C989.907 64.6861 1018.54 79.6607 1035.16 111.59C1042.16 124.584 1046.15 140.87 1046.15 155.175C1046.15 189.756 1025.52 225.03 993.251 238.667Z" fill="white"/>
<path fill-rule="evenodd" clip-rule="evenodd" d="M1245.06 198.426C1245.06 138.889 1218.43 103.306 1172.2 102.637H1169.21C1138.59 102.971 1114 121.265 1102.34 152.526C1087.7 190.451 1096.37 234.37 1122.31 257.655C1135.27 268.975 1152.93 275.614 1170.88 275.614C1209.79 275.614 1236.08 247.337 1240.4 238.024L1225.43 221.711C1212.13 239.336 1192.83 249.988 1170.88 249.988C1141.94 249.988 1124.98 225.699 1124.98 198.426H1245.06ZM1215.78 175.167H1125.63C1127.3 147.894 1146.29 128.263 1170.88 128.263C1195.48 128.263 1215.11 148.898 1215.78 175.167Z" fill="white"/>
<path d="M1383.44 220.735C1384.1 235.039 1377.77 250.348 1366.81 259.972C1354.82 270.288 1338.87 275.614 1319.24 275.614C1294.62 275.614 1270.33 259.972 1261.68 249.68L1277.66 232.698C1291.63 243.658 1302.62 250.323 1320.58 250.323C1332.54 250.323 1347.85 247.338 1354.51 232.698C1356.52 228.71 1356.52 222.715 1354.85 218.727C1350.19 207.098 1329.58 201.772 1318.6 199.096C1309.28 196.781 1295.65 192.792 1285 185.125C1269.04 173.804 1264.05 151.188 1273.34 131.223C1283.32 110.253 1307.61 102.612 1326.91 102.612C1347.88 102.612 1367.51 111.257 1380.14 125.228L1364.19 142.183C1351.56 132.869 1342.58 127.569 1326.26 127.569C1315.28 127.569 1300.3 132.226 1296.99 144.19C1295.65 149.516 1296.65 155.511 1299.66 159.498C1304.65 166.806 1316.28 171.463 1324.62 173.804C1337.25 177.123 1349.22 180.802 1359.53 185.434C1370.52 190.76 1383.15 202.08 1383.49 220.708L1383.44 220.735Z" fill="white"/>
<path fill-rule="evenodd" clip-rule="evenodd" d="M1600 105.287H1628.61V271.934C1628.61 316.189 1601 343.462 1557.75 343.462C1532.46 343.462 1501.2 329.825 1488.23 311.866L1502.87 295.58C1519.49 310.554 1537.78 318.865 1557.41 318.865C1595 318.865 1599.66 290.923 1599.66 270.313V253.332C1594 260.331 1579.03 275.614 1550.78 275.614C1533.46 275.614 1516.51 268.641 1504.54 256.317C1489.23 241.008 1481.26 217.749 1481.26 189.138C1481.26 160.527 1489.23 137.242 1504.54 121.934C1516.51 109.609 1533.49 102.637 1550.78 102.637C1579.05 102.637 1594.34 117.945 1600 125.253V105.287ZM1600.67 190.45C1600.67 160.502 1588.7 128.263 1555.43 128.263C1524.17 128.263 1510.18 159.55 1510.18 190.45C1510.18 217.723 1521.83 249.988 1555.43 249.988C1597.35 249.988 1600.67 204.421 1600.67 190.45Z" fill="white"/>
<path d="M1776.96 172.492V272.938H1805.91V172.492C1805.91 150.854 1802.59 138.22 1795.25 127.234C1784.6 111.591 1766 102.612 1745.7 102.612C1728.05 102.612 1706.44 110.922 1696.45 125.562V105.262H1667.84V272.913H1696.79V172.466C1696.79 165.493 1697.79 155.845 1702.11 148.512C1708.44 135.905 1722.75 128.238 1737.06 128.238C1762.99 128.238 1776.96 148.873 1776.96 172.492Z" fill="white"/>
<path d="M2088.98 227.732L2106.94 246C2084.32 266.274 2056.71 275.614 2026.1 275.614C1956.91 275.614 1906.69 225.725 1906.69 154.867C1906.69 84.0088 1954.93 34.7892 2026.1 34.7892C2057.38 34.7892 2083.65 43.4345 2106.94 64.4035L2088.98 82.6966C2073 68.7258 2047.06 61.3934 2026.1 61.3934C1970.55 61.3934 1937.95 98.6485 1937.95 154.867C1937.95 211.085 1967.56 248.676 2026.1 248.676C2048.38 248.676 2071.66 242.038 2088.98 227.732Z" fill="white"/>
<path fill-rule="evenodd" clip-rule="evenodd" d="M2270.29 198.426C2270.29 138.889 2243.66 103.306 2197.43 102.637H2194.41C2163.82 102.971 2139.2 121.265 2127.57 152.526C2112.93 190.451 2121.6 234.37 2147.54 257.655C2160.5 268.975 2178.15 275.614 2196.11 275.614C2235.02 275.614 2261.31 247.337 2265.63 238.024L2250.66 221.711C2237.36 239.336 2218.06 249.988 2196.11 249.988C2167.17 249.988 2150.21 225.699 2150.21 198.426H2270.29ZM2241.01 175.167H2150.86C2152.53 147.894 2171.52 128.263 2196.11 128.263C2220.71 128.263 2240.34 148.898 2241.01 175.167Z" fill="white"/>
<path d="M2408.33 272.938V172.492C2408.33 148.873 2394.36 128.238 2368.42 128.238C2354.12 128.238 2339.81 135.905 2333.48 148.512C2329.16 155.845 2328.16 165.493 2328.16 172.466V272.913H2299.21V105.262H2327.82V125.562C2337.81 110.922 2359.42 102.612 2377.07 102.612C2397.37 102.612 2415.97 111.591 2426.62 127.234C2433.96 138.22 2437.28 150.854 2437.28 172.492V272.938H2408.33Z" fill="white"/>
<path d="M2525.09 275.614C2541.06 275.614 2548.06 270.957 2560.03 261.644L2546.72 247.338C2543.07 250.991 2536.41 252.998 2531.42 252.998C2518.11 252.998 2512.12 245.023 2512.12 227.064V128.932H2555.04V105.313H2511.45V60.7501H2484.18V105.313H2459.89V128.932H2483.17V230.717C2483.17 257.99 2499.46 275.614 2525.09 275.614Z" fill="white"/>
<path fill-rule="evenodd" clip-rule="evenodd" d="M2650.16 102.637C2696.39 103.306 2723.02 138.889 2723.02 198.426H2602.94C2602.94 225.699 2619.9 249.988 2648.85 249.988C2670.79 249.988 2690.09 239.336 2703.39 221.711L2718.37 238.024C2714.04 247.337 2687.75 275.614 2648.85 275.614C2630.89 275.614 2613.24 268.975 2600.27 257.655C2574.33 234.37 2565.66 190.451 2580.3 152.526C2591.96 121.265 2616.56 102.971 2647.17 102.637H2650.16ZM2603.59 175.167H2693.74C2693.07 148.898 2673.44 128.263 2648.85 128.263C2624.25 128.263 2605.26 147.894 2603.59 175.167Z" fill="white"/>
<path d="M2826.15 128.237C2831.14 128.237 2835.46 129.241 2840.12 131.556V104.978C2838.11 103.975 2833.79 102.637 2829.8 102.637C2812.18 102.637 2795.55 110.947 2785.57 125.587V105.287H2756.96V272.938H2785.91V179.464C2785.91 179.464 2785.91 178.026 2785.95 176.411C2786 174.911 2786.08 173.259 2786.24 172.466C2786.57 164.155 2787.24 155.844 2791.23 148.512C2798.54 135.904 2811.84 128.237 2826.15 128.237Z" fill="white"/>
</svg>
