<svg width="810" height="344" viewBox="0 0 810 344" fill="none" xmlns="http://www.w3.org/2000/svg">
<path d="M419.849 225.364C435.33 239.44 458.872 254.547 483.165 254.547C505.681 254.547 518.34 239.44 518.34 223.582C518.34 217.886 516.994 213.616 514.548 210.193C513.623 208.892 512.533 207.714 511.296 206.628C510.307 205.748 509.217 204.933 508.035 204.159L507.165 203.6L505.956 202.88L504.563 202.11C503.455 201.524 502.291 200.96 501.082 200.401L499.956 199.851L499.058 199.439L497.207 198.642L494.011 197.359L493.901 197.318C492.417 196.736 490.914 196.149 489.449 195.521C439.168 175.443 404.653 159.58 404.653 114.914C404.744 83.1972 430.732 42 490.859 42C522.187 42 550.978 60.6764 571.057 83.4767L539.07 115.853C526.035 101.026 507.458 87.7013 487.012 87.7013C469.095 87.7013 460.273 100.371 460.273 113.411C460.273 132.367 476.13 138.374 491.235 144.005C541.506 162.302 574.904 178.444 574.904 222.079C574.904 255.111 546.764 300.904 483.449 300.904C447.898 300.904 415.535 283.263 390.958 259.051L419.849 225.364Z" fill="white"/>
<path d="M303.167 43.9703H358.412V299.03H303.167V43.9703Z" fill="white"/>
<path fill-rule="evenodd" clip-rule="evenodd" d="M672.644 299.121V212.507H703.413C760.536 212.507 805 190.078 805 127.863C805 65.6479 757.257 43.9703 703.413 43.9703H617.399V299.121H672.644ZM672.644 168.029V88.077H703.413C729.868 88.077 746.466 101.493 746.466 128.614C746.466 155.735 730.518 168.029 703.413 168.029H672.644Z" fill="white"/>
<path d="M192.667 154.512V122.419H224.746V154.512H256.825V164.648C256.825 176.474 255.891 190.362 253.546 201.341C252.227 207.439 250.257 213.538 248.013 219.357C246.804 222.404 245.494 225.401 244.111 228.297C242.81 231.018 241.445 233.653 240.034 236.155C236.187 242.817 231.781 249.292 226.624 255.299C225.213 257.081 223.711 258.772 222.117 260.458C220.523 262.149 218.929 263.743 217.244 265.338C196.697 285.142 169.876 297.527 141.919 300.34C138.539 300.624 131.788 301 128.417 301L126.246 300.973L122.875 300.867L118.9 300.666C117.37 300.569 115.968 300.459 114.906 300.34C86.9488 297.527 60.1277 285.142 39.5813 265.338C37.8958 263.743 36.3019 262.149 34.7081 260.458L33.6546 259.303L31.9325 257.31L30.2012 255.299C25.044 249.292 20.638 242.817 16.7907 236.155C13.8869 231.087 11.1663 225.364 8.82129 219.357C6.56788 213.538 4.59843 207.439 3.27936 201.341C1.0351 190.362 0 176.378 0 164.648V43.9703H64.1582V154.512C64.1582 154.512 64.1582 163.053 64.2498 165.775L64.378 168.565L64.5887 173.005C64.6711 174.361 64.7719 175.704 64.9093 177.037C65.9444 186.985 68.1887 196.369 72.6955 204.342C74.0054 206.688 75.3245 208.846 76.9184 211.004C86.5824 223.861 101.211 233.529 119.596 236.251C121.849 236.531 126.164 236.81 128.417 236.81C130.661 236.81 135.077 236.531 137.229 236.251C155.522 233.529 170.252 223.861 179.907 211.004C180.401 210.335 180.869 209.657 181.317 208.97C182.316 207.444 183.223 205.895 184.13 204.342C186.255 200.589 187.876 196.525 189.104 192.231C190.478 187.407 191.366 182.302 191.916 177.037C192.291 173.28 192.475 169.624 192.575 165.775C192.667 162.961 192.667 154.512 192.667 154.512Z" fill="white"/>
<path d="M224.847 66.1153H200.737V90.2306L224.746 90.2352V108.252L224.838 122.328H256.917V90.2352L224.847 90.2306V66.1153Z" fill="white"/>
<path d="M232.816 42H248.856V58.0463H232.816V42Z" fill="white"/>
</svg>
